%FSLAX24Y24*%
%MOIN*%
G70*
G01*
G75*
G04 Layer_Physical_Order=1*
G04 Layer_Color=255*
%ADD10R,0.1024X0.0433*%
%ADD11R,0.0512X0.0591*%
%ADD12R,0.0591X0.0984*%
%ADD13R,0.2205X0.2677*%
%ADD14R,0.0591X0.0512*%
%ADD15R,0.0709X0.0906*%
%ADD16R,0.0551X0.0669*%
%ADD17C,0.0600*%
%ADD18C,0.0300*%
%ADD19C,0.0120*%
%ADD20C,0.0160*%
%ADD21C,0.1654*%
%ADD22C,0.0630*%
%ADD23R,0.0630X0.0630*%
%ADD24C,0.0709*%
%ADD25R,0.0709X0.0709*%
%ADD26C,0.0320*%
D10*
X5906Y16122D02*
D03*
Y15059D02*
D03*
X7480Y16122D02*
D03*
Y15059D02*
D03*
D11*
X3563Y1969D02*
D03*
X4311D02*
D03*
D12*
X4024Y10315D02*
D03*
X5819D02*
D03*
D13*
X4921Y13091D02*
D03*
D14*
X1496Y5177D02*
D03*
Y5925D02*
D03*
X6890Y12579D02*
D03*
Y11831D02*
D03*
X1496Y3602D02*
D03*
Y4350D02*
D03*
X10039Y1949D02*
D03*
Y1201D02*
D03*
D15*
X3370Y3750D02*
D03*
X4370D02*
D03*
X5370D02*
D03*
X3370Y7037D02*
D03*
X4370D02*
D03*
X5370D02*
D03*
X10685Y7037D02*
D03*
X9685D02*
D03*
X8685D02*
D03*
X10685Y3750D02*
D03*
X9685D02*
D03*
X8685D02*
D03*
D16*
X9724Y14075D02*
D03*
X7677D02*
D03*
X9764Y10630D02*
D03*
X7677D02*
D03*
D17*
X8622Y17087D02*
X12008Y13705D01*
X5102Y17087D02*
X8622D01*
X4921Y13150D02*
X7559D01*
X8504Y12205D02*
X12047D01*
X7559Y13150D02*
X8504Y12205D01*
X1772Y13756D02*
X5102Y17087D01*
X4921Y13091D02*
X5308Y12703D01*
X2677Y10354D02*
X3976D01*
X1772Y11260D02*
X2677Y10354D01*
X1772Y11260D02*
Y12256D01*
D18*
X11295Y12992D02*
X12008Y13705D01*
X9724Y14055D02*
Y14724D01*
X7480Y16122D02*
X8327D01*
X5906D02*
X7480D01*
X8327D02*
X9724Y14724D01*
X7461Y16122D02*
X7480Y16142D01*
X7382Y15059D02*
X7402Y15039D01*
X5906Y15059D02*
X7382D01*
X6890Y12559D02*
Y14724D01*
X7126Y14961D01*
X7677Y14134D02*
X8819Y12992D01*
X11295D01*
X10197Y11535D02*
X10748Y10984D01*
X8583Y11535D02*
X10197D01*
X7677Y10630D02*
X8583Y11535D01*
X10748Y7165D02*
Y10984D01*
X10669Y7087D02*
X10748Y7165D01*
X9685Y10591D02*
X9724Y10630D01*
X9685Y7037D02*
Y10591D01*
X5315Y7047D02*
X6220D01*
X6890Y7717D01*
Y12028D01*
X3386Y7008D02*
Y7882D01*
X5819Y10315D01*
D19*
X8906Y1181D02*
X10039D01*
X8709Y984D02*
X8906Y1181D01*
X5370Y7032D02*
Y7037D01*
X8685Y3652D02*
Y3750D01*
X3370Y3742D02*
Y3750D01*
X5819Y10151D02*
Y10315D01*
X1762Y12256D02*
X1772D01*
X4024Y10312D02*
Y10315D01*
X4921Y13091D02*
X5742D01*
D20*
X10079Y1929D02*
Y2638D01*
X9685Y3031D02*
X10079Y2638D01*
X9685Y3031D02*
Y3750D01*
X8307Y1929D02*
X10039D01*
X7709Y1331D02*
X8307Y1929D01*
X7709Y984D02*
Y1331D01*
X7480Y3780D02*
X8701D01*
X4331Y1260D02*
Y3740D01*
Y1260D02*
X4606Y984D01*
X5709D01*
Y2008D02*
X7480Y3780D01*
X5709Y984D02*
Y2008D01*
X2559Y4567D02*
X3386Y3740D01*
X2559Y4567D02*
Y5472D01*
X2106Y5925D02*
X2559Y5472D01*
X1496Y5925D02*
X2106D01*
X1181Y2835D02*
X1575D01*
X827Y3189D02*
X1181Y2835D01*
X827Y3189D02*
Y4016D01*
X1575Y2835D02*
X4016Y394D01*
X6142D01*
X6732Y984D01*
X827Y4016D02*
X1181Y4370D01*
X1496D01*
Y5177D01*
X1457Y3583D02*
X1949D01*
X3563Y1969D01*
D21*
X1181Y16535D02*
D03*
Y1181D02*
D03*
X12598Y16535D02*
D03*
Y1181D02*
D03*
D22*
X8709Y984D02*
D03*
X7709D02*
D03*
X6709D02*
D03*
D23*
X5709D02*
D03*
D24*
X1772Y12256D02*
D03*
X12008Y13705D02*
D03*
D25*
X1772Y13756D02*
D03*
X12008Y12205D02*
D03*
D26*
X3543Y10354D02*
D03*
X2638Y10394D02*
D03*
X10827Y12205D02*
D03*
X8465Y12244D02*
D03*
X7520Y13150D02*
D03*
X6220D02*
D03*
X4921D02*
D03*
X9646Y12205D02*
D03*
X10354Y15315D02*
D03*
X9488Y16220D02*
D03*
X11220Y14488D02*
D03*
X7480Y17087D02*
D03*
X6299D02*
D03*
X5118Y17047D02*
D03*
X3465Y15472D02*
D03*
X4370Y16339D02*
D03*
X1811Y11260D02*
D03*
X8661Y17047D02*
D03*
X2520Y14528D02*
D03*
M02*
