M48
;Layer_Color=9474304
;FILE_FORMAT=2:4
INCH,TZ
;TYPE=PLATED
T1F00S00C0.0120
T2F00S00C0.0354
T3F00S00C0.0394
T4F00S00C0.0866
%
T01
X2638Y10394
X3543Y10354
X1811Y11260
X2520Y14528
X3465Y15472
X4370Y16339
X5118Y17047
X6299Y17087
X7480
X8661Y17047
X9488Y16220
X9646Y12205
X8465Y12244
X7520Y13150
X6220
X4921
X10827Y12205
X11220Y14488
X10354Y15315
T02
X5709Y984
X6709
X7709
X8709
T03
X1772Y12256
Y13756
X12008Y13705
Y12205
T04
X12598Y1181
X1181
Y16535
X12598
M30
