%FSLAX24Y24*%
%MOIN*%
G70*
G01*
G75*
G04 Layer_Physical_Order=2*
G04 Layer_Color=16711680*
%ADD10R,0.1024X0.0433*%
%ADD11R,0.0512X0.0591*%
%ADD12R,0.0591X0.0984*%
%ADD13R,0.2205X0.2677*%
%ADD14R,0.0591X0.0512*%
%ADD15R,0.0709X0.0906*%
%ADD16R,0.0551X0.0669*%
%ADD17C,0.0600*%
%ADD18C,0.0300*%
%ADD19C,0.0120*%
%ADD20C,0.0160*%
%ADD21C,0.1654*%
%ADD22C,0.0630*%
%ADD23R,0.0630X0.0630*%
%ADD24C,0.0709*%
%ADD25R,0.0709X0.0709*%
%ADD26C,0.0320*%
D17*
X2677Y10354D02*
X3583D01*
X4921Y13150D02*
X7559D01*
X8504Y12205D01*
X12008D01*
X1772Y11260D02*
X2677Y10354D01*
X1772Y11260D02*
Y12256D01*
X8622Y17087D02*
X12008Y13701D01*
X5102Y17087D02*
X8622D01*
X1772Y13756D02*
X5102Y17087D01*
D21*
X1181Y16535D02*
D03*
Y1181D02*
D03*
X12598Y16535D02*
D03*
Y1181D02*
D03*
D22*
X8709Y984D02*
D03*
X7709D02*
D03*
X6709D02*
D03*
D23*
X5709D02*
D03*
D24*
X1772Y12256D02*
D03*
X12008Y13705D02*
D03*
D25*
X1772Y13756D02*
D03*
X12008Y12205D02*
D03*
D26*
X3543Y10354D02*
D03*
X2638Y10394D02*
D03*
X10827Y12205D02*
D03*
X8465Y12244D02*
D03*
X7520Y13150D02*
D03*
X6220D02*
D03*
X4921D02*
D03*
X9646Y12205D02*
D03*
X10354Y15315D02*
D03*
X9488Y16220D02*
D03*
X11220Y14488D02*
D03*
X7480Y17087D02*
D03*
X6299D02*
D03*
X5118Y17047D02*
D03*
X3465Y15472D02*
D03*
X4370Y16339D02*
D03*
X1811Y11260D02*
D03*
X8661Y17047D02*
D03*
X2520Y14528D02*
D03*
M02*
